<svg width="80" height="81" viewBox="0 0 80 81" fill="none" xmlns="http://www.w3.org/2000/svg">
<circle cx="40" cy="40.8334" r="40" fill="#C1C6D0"/>
<path d="M38.38 37.9327H39.028C40.126 37.9327 40.45 38.7787 40.45 39.4987C40.45 40.2367 40.108 41.0647 39.028 41.0647H38.38V48.5347H34.78V33.4147C34.78 32.2447 35.626 31.6327 36.58 31.6327C37.534 31.6327 38.38 32.2447 38.38 33.4147V37.9327ZM25.834 32.2267H30.118C32.44 32.2267 32.872 32.9287 32.872 35.1967V47.8507H25.834C23.512 47.8507 23.08 47.1487 23.08 44.8807V35.1967C23.08 32.9287 23.512 32.2267 25.834 32.2267ZM27.148 45.0247H29.398V35.6467C29.398 35.2867 29.308 35.0527 28.912 35.0527H27.022C26.626 35.0527 26.554 35.2867 26.554 35.6467V44.4127C26.554 44.8087 26.68 45.0247 27.148 45.0247ZM56.47 34.6927H57.028C58.126 34.6927 58.45 35.5387 58.45 36.2587C58.45 36.9967 58.108 37.8247 57.028 37.8247H56.47V40.9747H52.87V33.4147C52.87 32.2447 53.716 31.6327 54.67 31.6327C55.624 31.6327 56.47 32.2447 56.47 33.4147V34.6927ZM50.926 34.4407V35.5027C50.926 39.3547 47.29 41.3707 42.466 41.0287C41.638 40.9747 40.972 40.3987 41.026 39.4447C41.08 38.5987 41.71 38.1487 42.574 38.1847C45.76 38.3107 47.38 37.2487 47.38 35.5747V35.3047C47.38 35.0527 47.254 34.9447 47.02 34.9447H42.808C41.764 34.9447 41.332 34.2427 41.332 33.5407C41.332 32.8387 41.746 32.1187 42.808 32.1187H48.406C50.26 32.1187 50.926 32.8927 50.926 34.4407ZM44.356 41.6047H54.058C56.182 41.6047 56.578 42.2527 56.578 44.2507V48.5347H44.356C42.178 48.5347 41.782 47.8867 41.782 45.8347V44.3047C41.782 42.2527 42.178 41.6047 44.356 41.6047ZM45.742 46.0327H53.032V44.5207C53.032 44.1607 52.942 44.0707 52.618 44.0707H45.742C45.418 44.0707 45.328 44.1607 45.328 44.5207V45.5827C45.328 45.9787 45.418 46.0327 45.742 46.0327Z" fill="white"/>
</svg>
