<svg width="53" height="53" viewBox="0 0 53 53" fill="none" xmlns="http://www.w3.org/2000/svg">
<circle cx="26.5" cy="26.5" r="26.5" fill="#142143"/>
<g clip-path="url(#clip0_2006_514)">
<path fill-rule="evenodd" clip-rule="evenodd" d="M36.1265 14.33H18.0274C15.4657 14.33 13.3794 16.4251 13.3794 18.978V30.2283C13.3794 32.79 15.4745 34.8763 18.0274 34.8763H24.4184L25.5188 36.7778L26.6016 38.6528C26.7953 38.9961 27.2882 38.9961 27.4907 38.6528L28.5735 36.7778L29.6739 34.8763H36.1353C38.697 34.8763 40.7833 32.7812 40.7833 30.2283V18.9868C40.7833 16.4251 38.6882 14.33 36.1265 14.33ZM28.3461 22.5707C26.9464 22.5707 25.8108 23.6887 25.8108 25.0708C25.8108 26.4528 26.9464 27.5708 28.3461 27.5708C29.7458 27.5708 30.8814 26.4528 30.8814 25.0708C30.8814 23.6887 29.7546 22.5707 28.3461 22.5707ZM28.3461 26.268C27.6771 26.268 27.1313 25.731 27.1313 25.0708C27.1313 24.4105 27.6771 23.8736 28.3461 23.8736C29.0152 23.8736 29.561 24.4105 29.561 25.0708C29.561 25.731 29.024 26.268 28.3461 26.268ZM18.8735 23.143C19.2696 22.7821 19.7802 22.5708 20.326 22.5708C21.5936 22.5708 22.606 23.6976 22.606 25.0797C22.606 26.4617 21.5848 27.5797 20.326 27.5797C19.7714 27.5797 19.2696 27.3597 18.8735 27.0075V27.4565H17.465V21.0743H18.8735V23.143ZM18.8823 25.5638C19.0759 26.0128 19.5249 26.3209 20.0443 26.3209C20.7485 26.3209 21.3119 25.7663 21.3119 25.0709C21.3119 24.3754 20.7485 23.8208 20.0443 23.8208C19.5249 23.8208 19.0759 24.1289 18.8823 24.5779C18.8119 24.7275 18.7766 24.8948 18.7766 25.0709C18.7766 25.2469 18.8207 25.4142 18.8823 25.5638ZM35.2728 22.6772V23.0733C34.8767 22.7652 34.3837 22.5803 33.8555 22.5803C32.5615 22.5803 31.5139 23.6631 31.5139 24.9923C31.5139 26.3216 32.5615 27.4044 33.8555 27.4044C34.3925 27.4044 34.8855 27.2195 35.2728 26.9114V27.5804C35.2728 27.5804 35.1319 28.2407 34.146 28.2407V29.4819C34.146 29.4819 35.2112 29.6052 36.1619 28.6544C36.1619 28.6544 36.6021 28.1879 36.6989 27.5716V22.6772H35.2728ZM34.1196 26.216C33.4065 26.216 32.8343 25.6614 32.8343 24.9835C32.8343 24.3057 33.4154 23.7511 34.1196 23.7511C34.6214 23.7511 35.0615 24.0328 35.2728 24.4378C35.3608 24.605 35.4048 24.7899 35.4048 24.9835C35.4048 25.1772 35.352 25.3709 35.2728 25.5293C35.0615 25.9431 34.6214 26.216 34.1196 26.216ZM22.7638 22.2282V20.9518C22.7638 20.9518 23.697 20.8285 24.5245 21.8057C24.5245 21.8057 24.903 22.281 24.991 22.9148V22.9501V27.4572H23.5385V22.9501C23.4153 22.3162 22.7638 22.2282 22.7638 22.2282Z" fill="white"/>
</g>
<defs>
<clipPath id="clip0_2006_514">
<rect width="28" height="25" fill="white" transform="translate(13 14)"/>
</clipPath>
</defs>
</svg>
