<svg width="441" height="441" viewBox="0 0 441 441" fill="none" xmlns="http://www.w3.org/2000/svg">
<rect width="440.063" height="440.063" rx="25" fill="#FF8515"/>
<path d="M84.2117 129.737H85.1567C87.9017 129.737 88.7117 131.852 88.7117 133.652C88.7117 135.497 87.8567 137.567 85.1567 137.567H84.2117V144.542H75.2117V126.992C75.2117 124.067 77.3267 122.537 79.7117 122.537C82.0967 122.537 84.2117 124.067 84.2117 126.992V129.737ZM47.8067 143.642C45.8717 143.687 44.0717 142.742 44.0717 140.357C44.0717 138.242 45.3767 137.297 47.3567 137.117C49.3817 136.892 51.0917 135.632 51.0917 133.247V131.222C51.0917 130.592 50.7767 130.322 50.3267 130.322H47.7167C45.2417 130.322 44.2067 128.702 44.2067 126.992C44.2067 125.327 45.1967 123.752 47.7167 123.752H67.3367C71.7467 123.752 73.0067 125.372 73.0067 128.972V133.652C73.0067 140.582 68.4167 144.452 62.5217 144.767C60.2267 144.902 58.3367 143.732 58.2917 141.392C58.2467 139.592 59.4617 138.287 61.3067 137.972C63.5567 137.612 64.9067 136.352 64.9067 133.832V131.132C64.9067 130.457 64.5467 130.232 63.9167 130.232H59.0117V133.247C59.0117 139.682 53.9267 143.552 47.8067 143.642ZM57.2567 159.482H83.0867C84.8867 159.482 85.6517 160.877 85.6517 162.227C85.6517 163.487 84.9317 164.792 83.0867 164.792H53.0717C48.9767 164.792 46.7717 162.182 46.7717 159.032V157.997C46.7717 154.982 48.9767 152.912 53.0717 152.912H75.3467V151.877C75.3467 151.337 75.2117 151.112 74.6267 151.112H49.7417C47.9867 151.112 47.2667 149.852 47.2667 148.502C47.2667 147.242 48.0317 145.892 49.7417 145.892H79.1717C83.0867 145.892 84.4817 147.062 84.4817 150.527V157.682H57.2567C56.6267 157.682 56.3117 158.042 56.3117 158.447V158.672C56.3117 159.077 56.6267 159.482 57.2567 159.482ZM127.907 139.232C130.202 139.412 131.147 141.077 131.147 142.787C131.147 144.677 130.022 146.342 127.412 146.342H92.7617C90.1517 146.342 89.0267 144.677 89.0267 142.787C89.0267 140.942 90.1067 139.187 92.7617 139.187H100.367C101.717 137.297 102.212 135.272 102.212 133.112V130.862C102.212 130.322 101.942 129.962 101.312 129.962H94.3367C91.5017 129.962 90.2867 128.657 90.2867 126.497C90.2867 124.517 91.4567 123.167 94.3367 123.167H123.182C127.232 123.167 128.852 124.202 128.852 127.847V132.482C128.852 135.137 128.492 137.432 127.907 139.232ZM111.032 129.872V131.987C111.032 134.912 110.582 137.342 109.367 139.187H119.132C119.762 137.387 120.032 135.362 120.032 133.652V130.772C120.032 130.187 119.717 129.872 118.952 129.872H111.032ZM97.2617 148.817H122.867C128.312 148.817 129.302 150.347 129.302 155.567V164.792H97.2617C91.8167 164.792 90.8267 163.217 90.8267 157.997V155.567C90.8267 150.347 91.8167 148.817 97.2617 148.817ZM100.907 158.582H120.347V156.242C120.347 155.432 120.122 155.027 119.222 155.027H100.907C100.007 155.027 99.8267 155.432 99.8267 156.242V157.322C99.8267 158.222 100.007 158.582 100.907 158.582ZM135.962 139.862V135.722C135.962 134.687 136.187 133.742 136.592 132.932C134.567 132.842 133.442 131.537 133.442 129.692C133.442 127.802 134.567 126.497 136.772 126.497H143.207C143.342 123.932 145.097 122.402 147.797 122.402C150.497 122.402 152.207 123.932 152.342 126.497H158.777C160.982 126.497 162.152 127.802 162.152 129.692C162.152 131.537 160.982 132.842 158.957 132.932C159.362 133.742 159.587 134.687 159.587 135.722V139.862C159.587 145.847 155.042 149.312 147.797 149.312C140.552 149.312 135.962 145.847 135.962 139.862ZM173.762 133.787H175.157C177.902 133.787 178.712 135.902 178.712 137.702C178.712 139.547 177.857 141.617 175.157 141.617H173.762V154.442H164.762V126.992C164.762 124.067 166.877 122.537 169.262 122.537C171.647 122.537 173.762 124.067 173.762 126.992V133.787ZM151.397 139.142V136.217C151.397 134.057 150.002 132.662 147.797 132.662C145.547 132.662 144.152 134.057 144.152 136.217V139.142C144.152 141.257 145.547 142.742 147.797 142.742C150.002 142.742 151.397 141.257 151.397 139.142ZM147.572 157.907H171.512C174.167 157.907 175.202 159.527 175.202 161.327C175.202 163.172 174.122 164.792 171.512 164.792H143.927C138.887 164.792 137.537 163.037 137.537 158.222V154.712C137.537 151.922 139.652 150.527 142.172 150.527C144.692 150.527 146.672 151.967 146.672 154.712V157.007C146.672 157.727 146.897 157.907 147.572 157.907ZM232.499 144.317H223.499V126.992C223.499 124.067 225.614 122.537 227.999 122.537C230.384 122.537 232.499 124.067 232.499 126.992V144.317ZM192.809 134.237V132.707C192.809 126.182 198.209 122.807 205.589 122.807C212.969 122.807 218.414 126.137 218.414 132.707V134.237C218.414 140.807 212.969 144.137 205.634 144.137C198.254 144.137 192.809 140.807 192.809 134.237ZM201.584 132.797V134.147C201.584 136.262 203.339 137.522 205.589 137.522C207.839 137.522 209.684 136.262 209.684 134.147V132.797C209.684 130.682 207.839 129.377 205.589 129.422C203.339 129.467 201.584 130.727 201.584 132.797ZM231.149 164.792H200.684C196.589 164.792 194.384 162.137 194.384 158.987V157.907C194.384 154.847 196.589 152.777 200.684 152.777H223.409V151.697C223.409 151.157 223.274 150.932 222.689 150.932H197.354C195.599 150.932 194.879 149.672 194.879 148.322C194.879 147.062 195.644 145.667 197.354 145.667H227.189C231.149 145.667 232.544 146.837 232.544 150.302V157.592H204.869C204.239 157.592 203.924 157.952 203.924 158.402V158.627C203.924 159.032 204.239 159.392 204.869 159.392H231.149C232.949 159.392 233.714 160.832 233.714 162.182C233.714 163.442 232.994 164.792 231.149 164.792ZM277.499 126.992V146.792H268.499V126.992C268.499 124.067 270.614 122.537 272.999 122.537C275.384 122.537 277.499 124.067 277.499 126.992ZM252.479 138.422C249.419 143.642 244.289 146.342 240.599 146.342C238.169 146.342 236.504 145.082 236.504 142.472C236.504 140.762 237.539 139.457 239.339 138.872C243.569 137.207 245.819 134.372 245.999 128.432V126.857C246.134 124.337 248.204 122.942 250.679 122.987C253.109 123.032 254.999 124.562 254.999 127.037V128.567C254.999 129.602 254.909 130.592 254.774 131.582C261.479 132.212 265.574 136.757 265.259 145.757H256.484C256.754 141.527 255.314 139.052 252.479 138.422ZM243.254 148.637H271.109C276.734 148.637 277.769 150.167 277.769 155.567V164.792H268.679V156.827C268.679 156.152 268.319 155.747 267.599 155.747H243.254C240.734 155.747 239.339 154.307 239.339 152.192C239.339 150.077 240.734 148.637 243.254 148.637ZM71.8367 175.537C74.2217 175.537 75.6617 177.067 75.6617 179.317V217.792H68.0117V198.667H67.4267C64.9067 198.667 63.3317 197.092 63.3317 194.752C63.3317 192.457 64.8617 190.747 67.4267 190.747H68.0117V179.317C68.0117 177.067 69.4517 175.537 71.8367 175.537ZM81.6467 175.537C84.0317 175.537 85.5617 177.067 85.5617 179.407V217.792H77.6867V179.407C77.6867 177.067 79.2617 175.537 81.6467 175.537ZM55.1417 208.522H62.2067C64.9517 208.522 66.0317 210.412 66.0317 212.212C66.0317 214.057 64.9067 215.902 62.2067 215.902H50.7767C46.6817 215.902 45.0167 214.372 45.0167 210.277V198.037C45.0167 193.942 46.6817 192.502 50.7767 192.502H54.1517V185.482C54.1517 184.897 53.9717 184.717 53.4767 184.717H48.7967C46.0967 184.717 44.9717 182.827 44.9717 180.982C44.9717 179.182 46.0517 177.202 48.7967 177.202H56.8517C61.5317 177.202 62.7017 178.462 62.7017 182.062V199.837H55.1417C54.0617 199.837 53.5667 200.197 53.5667 201.277V207.082C53.5667 208.162 54.0617 208.522 55.1417 208.522ZM125.387 175.537C127.772 175.537 129.887 177.067 129.887 179.992V217.792H120.887V179.992C120.887 177.067 123.002 175.537 125.387 175.537ZM106.712 192.007C114.587 195.157 118.277 202.042 117.467 215.227H108.737C109.637 208.117 108.512 203.032 105.137 200.332C103.157 207.037 99.6917 211.717 94.9217 214.597C92.5817 216.037 89.7467 215.767 88.5317 214.192C87.3167 212.752 87.1817 210.142 89.2067 208.747C96.0917 204.067 98.1167 197.317 98.1167 184.762V181.252C98.1167 178.372 100.277 176.887 102.617 176.887C104.912 176.887 107.072 178.507 107.072 181.252V184.717C107.072 187.327 106.937 189.757 106.712 192.007ZM170.387 175.537C172.772 175.537 174.887 177.067 174.887 179.992V217.792H165.887V179.992C165.887 177.067 168.002 175.537 170.387 175.537ZM159.092 184.492H137.627C135.422 184.492 134.162 182.602 134.162 180.847C134.162 179.092 135.242 177.112 137.627 177.112H159.092C161.477 177.112 162.557 179.092 162.557 180.847C162.557 182.602 161.297 184.492 159.092 184.492ZM158.822 208.927H160.262C162.647 208.927 163.682 210.637 163.682 212.392C163.682 214.147 162.467 215.992 160.262 215.992H137.087C134.882 215.992 133.667 214.147 133.667 212.392C133.667 210.637 134.702 208.927 137.087 208.927H138.122V190.117C138.122 187.462 139.877 186.157 142.487 186.157C145.052 186.157 146.762 187.507 146.762 190.117V208.927H150.182V190.117C150.182 187.462 151.847 186.157 154.457 186.157C157.022 186.157 158.822 187.507 158.822 190.117V208.927Z" fill="white"/>
<rect x="43.2965" y="70.9779" width="128" height="46" rx="23" fill="#BD4F00"/>
<path d="M78.1905 93.0919H70.3805C66.7945 93.0919 64.6605 90.5179 64.6605 87.5699V87.0639C64.6605 84.1159 66.7945 81.5419 70.3805 81.5419H78.1905C81.7765 81.5419 83.9325 84.1159 83.9325 87.0639V87.5699C83.9325 90.5179 81.7765 93.0919 78.1905 93.0919ZM69.2145 87.0419V87.5919C69.2145 88.7359 70.1385 89.5939 71.5245 89.5939H77.0465C78.4325 89.5939 79.3785 88.7359 79.3785 87.5919V87.0419C79.3785 85.8979 78.4325 85.0399 77.0465 85.0399H71.5245C70.1385 85.0399 69.2145 85.8979 69.2145 87.0419ZM80.6105 97.7119H82.7665C84.0645 97.7119 84.5925 98.5699 84.5925 99.4719C84.5925 100.396 84.0425 101.21 82.7665 101.21H65.8265C64.5505 101.21 64.0005 100.396 64.0005 99.4719C64.0005 98.5699 64.5285 97.7119 65.8265 97.7119H67.9825V95.6219C67.9825 94.2359 68.9505 93.7959 70.1165 93.7959C71.2605 93.7959 72.2505 94.2579 72.2505 95.6219V97.7119H76.3425V95.6219C76.3425 94.2359 77.3105 93.7959 78.4765 93.7959C79.6205 93.7959 80.6105 94.2579 80.6105 95.6219V97.7119ZM105.977 101.65H101.577V83.1699C101.577 81.7399 102.611 80.9919 103.777 80.9919C104.943 80.9919 105.977 81.7399 105.977 83.1699V101.65ZM98.5185 100.726H90.2905C87.6285 100.726 86.5945 99.7579 86.5945 97.0959V92.8719C86.5945 90.2099 87.6285 89.2859 90.2905 89.2859H94.3605V86.0739C94.3605 85.7879 94.2725 85.4799 93.8105 85.4799H88.6625C87.3425 85.4799 86.7925 84.5559 86.7925 83.6539C86.7925 82.7739 87.3205 81.8059 88.6625 81.8059H95.0205C97.9685 81.8059 98.7605 82.6419 98.7605 85.0619V92.8719H91.9845C91.2365 92.8719 90.9945 93.0479 90.9945 93.7959V96.1939C90.9945 96.9419 91.2365 97.1179 91.9845 97.1179H98.5185C99.8605 97.1179 100.389 98.0419 100.389 98.9219C100.389 99.8239 99.8385 100.726 98.5185 100.726ZM127.427 86.4919H128.109C129.451 86.4919 129.847 87.5259 129.847 88.4059C129.847 89.3079 129.429 90.3199 128.109 90.3199H127.427V96.5899H123.027V83.1699C123.027 81.7399 124.061 80.9919 125.227 80.9919C126.393 80.9919 127.427 81.7399 127.427 83.1699V86.4919ZM115.657 89.0659C114.205 91.7059 111.719 93.0919 109.893 93.0919C108.749 93.0919 107.935 92.4539 107.935 91.1779C107.935 90.3639 108.419 89.7479 109.255 89.4179C111.323 88.5819 112.423 87.1519 112.489 84.0939V83.2579C112.533 81.9599 113.567 81.2999 114.755 81.3219C115.921 81.3439 116.867 82.0699 116.867 83.3239V84.1159C116.867 84.6659 116.823 85.1939 116.757 85.6779C120.013 86.0519 121.927 88.3179 121.773 92.7839H117.505C117.659 90.6719 116.999 89.4399 115.657 89.0659ZM114.711 98.2619H126.305C127.625 98.2619 128.131 99.0539 128.131 99.9339C128.131 100.836 127.603 101.65 126.305 101.65H112.841C110.377 101.65 109.717 100.792 109.717 98.4379V96.1279C109.717 94.6979 110.751 94.0159 111.983 94.0159C113.215 94.0159 114.183 94.7199 114.183 96.1279V97.7559C114.183 98.1739 114.293 98.2619 114.711 98.2619ZM131.893 93.2899C130.727 93.3119 130.045 92.6519 130.045 91.6399C130.045 90.8479 130.551 90.2759 131.255 90.0779C132.751 89.6599 133.631 88.5159 133.631 86.1619V86.0079H131.761C130.727 86.0079 130.155 85.1279 130.155 84.3359C130.155 83.5439 130.639 82.6419 131.761 82.6419H133.565C133.653 81.4979 134.247 80.9699 135.523 80.9699C136.799 80.9699 137.415 81.5199 137.503 82.6419H139.307C140.429 82.6419 140.913 83.5439 140.913 84.3359C140.913 85.1279 140.341 86.0079 139.307 86.0079H137.569V86.2059C137.569 86.6899 137.525 87.1299 137.459 87.5699C139.967 87.8779 141.243 89.6819 141.067 93.0259H137.305C137.525 91.8599 137.129 90.9359 136.271 90.6499C135.171 92.2779 133.521 93.2679 131.893 93.2899ZM146.457 88.8899H145.467V93.2899H141.617V82.8839C141.617 81.7399 142.387 80.9919 143.553 80.9919C144.719 80.9919 145.467 81.7399 145.467 82.8839V85.4579H146.457V82.8839C146.457 81.7399 147.227 80.9919 148.393 80.9919C149.559 80.9919 150.307 81.7399 150.307 82.8839V93.2899H146.457V88.8899ZM133.103 94.0819H147.073C149.823 94.0819 150.329 94.8299 150.329 97.4699V101.65H145.885V98.0199C145.885 97.6899 145.709 97.4919 145.357 97.4919H133.103C131.893 97.4919 131.211 96.8319 131.211 95.7979C131.211 94.7639 131.893 94.0819 133.103 94.0819Z" fill="white"/>
</svg>
