<svg width="58" height="22" viewBox="0 0 58 22" fill="none" xmlns="http://www.w3.org/2000/svg">
<g clip-path="url(#clip0_2005_151)">
<path d="M35.5579 10.3141H33.2779V13.9113C33.2779 14.0676 33.2002 14.1372 33.0534 14.1372H31.9221C31.8357 14.1372 31.7839 14.1198 31.7494 14.085C31.7148 14.0503 31.7062 13.9895 31.7062 13.9113V10.3141H29.7112V13.9113C29.7112 14.0676 29.6335 14.1372 29.4866 14.1372H28.3553C28.1999 14.1372 28.1308 14.059 28.1308 13.9113V10.3141H25.6004C25.5053 10.3141 25.6262 10.288 25.6004 10.2447C25.5744 10.2012 25.6004 10.1317 25.6004 10.0535V9.26284C25.6004 9.17593 25.5744 9.11511 25.6004 9.07166C25.6262 9.02821 25.5053 9.01084 25.6004 9.01084H35.5752C35.7306 9.01084 35.8084 9.09775 35.8084 9.26284V10.0535C35.8084 10.2272 35.7306 10.3141 35.5752 10.3141M30.7043 8.34181C30.1689 8.34181 29.668 8.28099 29.2189 8.15935C28.7612 8.03771 28.3726 7.87263 28.0358 7.65541C27.6989 7.43818 27.4398 7.17753 27.2498 6.87342C27.0599 6.56932 26.9648 6.23046 26.9648 5.85684C26.9648 5.48323 27.0599 5.14437 27.2498 4.83158C27.4398 4.52747 27.6989 4.25812 28.0358 4.0409C28.3639 3.82369 28.7612 3.6586 29.2189 3.53696C29.668 3.41532 30.1689 3.35449 30.7043 3.35449C31.2398 3.35449 31.7234 3.41532 32.1811 3.53696C32.6302 3.6586 33.0275 3.82369 33.3643 4.0409C33.7011 4.25812 33.9602 4.51878 34.1502 4.83158C34.3402 5.13568 34.4352 5.48323 34.4352 5.85684C34.4352 6.23046 34.3402 6.56932 34.1502 6.87342C33.9602 7.17753 33.7012 7.43818 33.373 7.65541C33.0448 7.87263 32.6475 8.03771 32.1898 8.15935C31.7321 8.28099 31.2398 8.34181 30.713 8.34181M30.713 4.6578C30.4021 4.6578 30.1171 4.69256 29.858 4.75337C29.5989 4.81419 29.3744 4.90978 29.1844 5.01404C29.003 5.12699 28.8562 5.25732 28.7439 5.40503C28.6403 5.55274 28.5884 5.70913 28.5884 5.86553C28.5884 6.02193 28.6403 6.16964 28.7439 6.30865C28.8476 6.45636 28.9943 6.57801 29.1844 6.68227C29.3657 6.78653 29.5903 6.87342 29.858 6.94293C30.1171 7.00375 30.4021 7.03851 30.713 7.03851C31.0239 7.03851 31.3089 7.00375 31.568 6.94293C31.8271 6.88211 32.0516 6.79522 32.2416 6.68227C32.4229 6.57801 32.5698 6.44767 32.6734 6.30865C32.7771 6.16095 32.8288 6.01324 32.8288 5.86553C32.8288 5.71782 32.7771 5.55274 32.6734 5.40503C32.5698 5.25732 32.4316 5.12699 32.2416 5.01404C32.0602 4.90109 31.8357 4.81419 31.5766 4.75337C31.3175 4.69256 31.0325 4.6578 30.713 4.6578Z" fill="#595857"/>
<path d="M37.7859 9.57507C37.6391 9.66198 37.5441 9.70543 37.5009 9.70543C37.4491 9.70543 37.3973 9.6707 37.3368 9.5838L36.7841 8.87997C36.6891 8.75833 36.6632 8.68015 36.6891 8.6367C36.715 8.59324 36.7755 8.54115 36.8619 8.47164C37.2678 8.20229 37.6218 7.8808 37.9155 7.52457C38.2091 7.16833 38.4509 6.78602 38.6496 6.37765C38.8395 5.96928 38.9864 5.54354 39.0727 5.10042C39.159 4.65729 39.2109 4.20548 39.2109 3.76235C39.2109 3.63202 39.2282 3.55382 39.2627 3.52776C39.2973 3.5017 39.3663 3.493 39.47 3.5017L40.5495 3.54514C40.6359 3.54514 40.6877 3.57121 40.7222 3.59727C40.7481 3.62333 40.7654 3.67547 40.7654 3.76235C40.7654 4.44007 40.6877 5.09173 40.5409 5.71732C40.6532 5.96928 40.8 6.21257 40.9814 6.44716C41.154 6.68176 41.3527 6.89898 41.5514 7.09882C41.7586 7.29866 41.9659 7.47243 42.1818 7.63752C42.3977 7.79392 42.5963 7.92425 42.7777 8.02851C42.8813 8.09802 42.9331 8.15884 42.9331 8.21098C42.9331 8.26311 42.8986 8.33262 42.8381 8.42819L42.4063 9.13197C42.3458 9.22752 42.294 9.27098 42.2509 9.2797C42.2077 9.2797 42.1299 9.26233 42.0263 9.21016C41.8622 9.12325 41.6981 9.01906 41.5082 8.89742C41.3181 8.7757 41.1368 8.62805 40.9468 8.47164C40.7568 8.31523 40.5755 8.13278 40.4027 7.94162C40.23 7.75047 40.0659 7.54194 39.9277 7.33341C39.6773 7.79392 39.375 8.21098 39.0209 8.59324C38.6668 8.9756 38.2609 9.30579 37.8032 9.60116M42.1386 14.3365C41.6463 14.3365 41.1886 14.2757 40.7741 14.1628C40.3595 14.0498 39.9968 13.8934 39.6945 13.6936C39.3923 13.4937 39.1505 13.2504 38.9777 12.9811C38.805 12.703 38.7186 12.4076 38.7186 12.0775C38.7186 11.7473 38.805 11.4779 38.9777 11.2085C39.1505 10.9393 39.3923 10.7046 39.6945 10.5048C39.9968 10.305 40.3595 10.1485 40.7741 10.0269C41.1886 9.91398 41.6463 9.85316 42.1386 9.85316C42.6308 9.85316 43.0541 9.90526 43.4686 10.0183C43.8917 10.1312 44.2544 10.2875 44.574 10.4874C44.8936 10.6873 45.144 10.9218 45.334 11.1912C45.524 11.4606 45.619 11.756 45.619 12.0775C45.619 12.3989 45.524 12.703 45.334 12.9811C45.144 13.2504 44.8936 13.4937 44.574 13.6936C44.2544 13.8934 43.8917 14.0498 43.4686 14.1628C43.0454 14.2757 42.605 14.3365 42.1386 14.3365ZM42.1386 11.0956C41.5686 11.0956 41.1281 11.1999 40.8086 11.3997C40.4891 11.6083 40.325 11.8428 40.325 12.1036C40.325 12.3642 40.4891 12.5901 40.8086 12.7812C41.1281 12.9724 41.5772 13.0767 42.1386 13.0767C42.4063 13.0767 42.6482 13.0506 42.8726 12.9985C43.0972 12.9463 43.2959 12.8768 43.46 12.7899C43.624 12.703 43.7536 12.5988 43.8485 12.4858C43.9436 12.3642 43.9868 12.2426 43.9868 12.1122C43.9868 11.9818 43.9436 11.8602 43.8485 11.7386C43.7536 11.6169 43.624 11.5126 43.46 11.4171C43.2959 11.3215 43.0972 11.2434 42.8726 11.1912C42.6482 11.1304 42.3977 11.1043 42.1386 11.1043M42.1904 6.63832L42.035 6.59487C42.035 6.59487 41.9831 6.50799 41.9831 6.4211V5.5783C41.9831 5.47403 42.0004 5.40452 42.0436 5.38715L42.1991 5.36108H43.9781V3.52776C43.9781 3.43219 44.004 3.37137 44.0472 3.3453L44.2199 3.31055H45.3427C45.4376 3.31055 45.4981 3.32792 45.5153 3.37137L45.5413 3.52776V9.35788C45.5413 9.50561 45.4722 9.57507 45.3254 9.57507H44.194C44.0472 9.57507 43.9781 9.50561 43.9781 9.36661V6.63832H42.1991H42.1904Z" fill="#595857"/>
<path d="M57.0535 9.54849H52.8476V13.9103C52.8476 14.0666 52.7699 14.1361 52.6231 14.1361H51.5004C51.3449 14.1361 51.2586 14.0579 51.2586 13.9103V9.54849H47.3118C47.2168 9.54849 47.1477 9.53113 47.1218 9.48767C47.0959 9.44422 47.0787 9.3834 47.0787 9.29649V8.50584C47.0787 8.41897 47.0959 8.35815 47.1218 8.31471C47.1477 8.27127 47.2082 8.25388 47.3118 8.25388H53.9531C54.0568 7.81076 54.1431 7.3242 54.1949 6.80287C54.2554 6.27287 54.2813 5.73416 54.2813 5.17809L54.2467 4.99562C54.2209 4.94349 54.1517 4.91742 54.0395 4.91742H48.6764L48.5036 4.89136C48.4518 4.87398 48.4259 4.81316 48.4259 4.71758V3.81396C48.4259 3.71839 48.4518 3.66625 48.5036 3.64888L48.6764 3.6228H55.0413C55.3263 3.6228 55.5335 3.68363 55.6544 3.81396C55.7753 3.94429 55.8358 4.16151 55.8358 4.48299C55.8358 5.12595 55.8013 5.76891 55.7408 6.42057C55.6804 7.07222 55.5853 7.68912 55.4558 8.27127H57.0535C57.2089 8.27127 57.2953 8.35815 57.2953 8.52321V9.31394C57.2953 9.47903 57.2176 9.56586 57.0535 9.56586" fill="#595857"/>
<path d="M27.7508 15.5615L27.0513 16.9517V17.9248H26.6972V16.9517L25.989 15.5615H26.3777L26.8699 16.5955L27.3622 15.5615H27.7508Z" fill="#595857"/>
<path d="M29.7805 17.1255C29.7805 17.3687 29.7028 17.5599 29.5387 17.7163C29.3833 17.864 29.176 17.9422 28.9342 17.9422C28.6924 17.9422 28.4937 17.864 28.3296 17.7163C28.1742 17.5686 28.0878 17.3687 28.0878 17.1255V15.5615H28.4419V17.1081C28.4419 17.2645 28.4851 17.3861 28.5714 17.4817C28.6578 17.5773 28.7787 17.6207 28.9256 17.6207C29.0723 17.6207 29.1932 17.5773 29.2796 17.4817C29.366 17.3861 29.4092 17.2645 29.4092 17.1081V15.5615H29.7632V17.1255H29.7805Z" fill="#595857"/>
<path d="M31.8705 17.2472C31.8705 17.4644 31.7928 17.6295 31.6374 17.7512C31.4819 17.8728 31.2747 17.9336 31.0242 17.9336C30.8428 17.9336 30.6874 17.9076 30.5578 17.8642C30.4283 17.8207 30.3074 17.7338 30.1951 17.6209L30.4369 17.3862C30.5146 17.4644 30.6096 17.5252 30.7047 17.5601C30.7996 17.5948 30.912 17.6122 31.0329 17.6122C31.1883 17.6122 31.3092 17.5774 31.3869 17.5166C31.4733 17.4558 31.5165 17.3602 31.5165 17.2472C31.5165 17.143 31.4819 17.0561 31.4214 17.004L31.3265 16.9431L31.171 16.9084L30.8946 16.865C30.7047 16.8389 30.5578 16.7781 30.4456 16.6738C30.3333 16.5695 30.2728 16.4131 30.2728 16.222C30.2728 16.0134 30.342 15.8484 30.4801 15.718C30.6183 15.5877 30.8083 15.5269 31.0587 15.5269C31.3524 15.5269 31.5942 15.6138 31.7842 15.7962L31.5597 16.0221C31.4906 15.9526 31.4128 15.9092 31.3351 15.8831C31.2487 15.857 31.1538 15.8397 31.0501 15.8397C30.912 15.8397 30.8083 15.8744 30.7392 15.9439C30.6615 16.0134 30.627 16.1003 30.627 16.2046C30.627 16.3001 30.6615 16.3697 30.7133 16.4218C30.7737 16.474 30.8601 16.5087 30.9724 16.5261L31.2401 16.5695C31.3437 16.5869 31.4301 16.6043 31.4992 16.6303L31.6806 16.7433C31.8101 16.8562 31.8705 17.0213 31.8705 17.2299V17.2472Z" fill="#595857"/>
<path d="M33.9001 17.9248H32.3974V15.5615H33.9001V15.883H32.7602V16.5694H33.736V16.8909H32.7602V17.5946H33.9001V17.9248Z" fill="#595857"/>
<path d="M36.0416 16.7439C36.0416 17.0306 36.0416 17.2131 36.0156 17.3C35.9897 17.4563 35.9206 17.5867 35.817 17.691C35.6529 17.8561 35.4456 17.9429 35.1951 17.9429C34.9447 17.9429 34.746 17.8561 34.5819 17.691C34.4784 17.5867 34.4093 17.4563 34.3833 17.3C34.3661 17.2044 34.3575 17.022 34.3575 16.7352C34.3575 16.4485 34.3661 16.2747 34.3833 16.1791C34.4093 16.0228 34.4784 15.8924 34.5819 15.7881C34.746 15.623 34.9533 15.5361 35.1951 15.5361C35.3247 15.5361 35.4369 15.5535 35.5406 15.597C35.6442 15.6404 35.7392 15.7012 35.817 15.7881C35.9206 15.8924 35.9897 16.0228 36.0156 16.1791C36.0329 16.2747 36.0416 16.4659 36.0416 16.7439ZM35.6874 16.7439C35.6874 16.5006 35.6874 16.3269 35.6615 16.24C35.6442 16.153 35.6097 16.0749 35.5493 16.0053L35.3938 15.901L35.1951 15.8663L34.9965 15.9098L34.8411 16.014C34.7806 16.0749 34.746 16.153 34.7288 16.2486C34.7115 16.3442 34.7029 16.5093 34.7029 16.7439C34.7029 16.9785 34.7029 17.161 34.7288 17.2479C34.746 17.3347 34.7806 17.4129 34.8411 17.4737L34.9965 17.578L35.1951 17.6128L35.3938 17.5693L35.5493 17.4651C35.6097 17.4042 35.6442 17.3261 35.6615 17.2304C35.6788 17.1349 35.6874 16.9698 35.6874 16.7352V16.7439Z" fill="#595857"/>
<path d="M38.3905 17.9248H38.0623L36.9742 16.2566V17.9248H36.6201V15.5615H36.9482L38.0364 17.2124V15.5615H38.3905V17.9248Z" fill="#595857"/>
<path d="M40.6711 17.0048C40.6711 17.1612 40.6538 17.2915 40.6192 17.3871C40.5847 17.4913 40.5329 17.5869 40.4552 17.6651C40.3688 17.7607 40.2737 17.8215 40.1615 17.865C40.0579 17.9084 39.937 17.9258 39.8074 17.9258C39.5656 17.9258 39.3584 17.8389 39.1943 17.6738C39.0906 17.5695 39.0215 17.4392 38.9956 17.2828C38.9783 17.1873 38.9697 17.0048 38.9697 16.7181C38.9697 16.4313 38.9783 16.2575 38.9956 16.162C39.0215 16.0056 39.0906 15.8752 39.1943 15.771C39.3584 15.6059 39.5656 15.519 39.8161 15.519C40.0665 15.519 40.2565 15.5885 40.412 15.7362C40.5502 15.8665 40.6451 16.0403 40.6796 16.2575H40.3169C40.2824 16.1272 40.2306 16.023 40.1442 15.9534C40.0579 15.884 39.9542 15.8491 39.8161 15.8491L39.626 15.8926L39.4706 15.9969C39.4102 16.0577 39.3756 16.1359 39.3584 16.2402C39.341 16.3357 39.3324 16.5008 39.3324 16.7354C39.3324 16.97 39.341 17.1438 39.3584 17.2393C39.3756 17.335 39.4188 17.4132 39.4706 17.474C39.557 17.5695 39.6779 17.613 39.8161 17.613C39.9715 17.613 40.1011 17.5608 40.196 17.4479C40.2737 17.3523 40.3169 17.2307 40.3169 17.0743V16.944H39.8161V16.6399H40.6711V17.0048Z" fill="#595857"/>
<path d="M44.6005 16.7265V16.8568C44.6005 17.0567 44.5918 17.213 44.5659 17.3086C44.5313 17.465 44.4623 17.5953 44.3586 17.6996C44.2895 17.7691 44.1945 17.8299 44.0909 17.8647C43.9873 17.8994 43.875 17.9168 43.7455 17.9168H42.9164V15.5535H43.7455C44.0045 15.5535 44.2031 15.6317 44.35 15.7794C44.4623 15.8924 44.5313 16.04 44.5659 16.2138C44.5832 16.3007 44.5918 16.4745 44.5918 16.7178L44.6005 16.7265ZM44.2463 16.7265C44.2463 16.5267 44.2463 16.3963 44.2291 16.3181C44.2118 16.1965 44.1773 16.1096 44.1168 16.0487C44.0218 15.9445 43.8836 15.8924 43.7195 15.8924H43.2878V17.6127H43.7195C43.8923 17.6127 44.0218 17.5606 44.1168 17.4563C44.1686 17.3955 44.2118 17.2999 44.2291 17.1696C44.2377 17.0827 44.2463 16.9437 44.2463 16.7351V16.7265Z" fill="#595857"/>
<path d="M45.5245 15.5615H45.1704V17.9248H45.5245V15.5615Z" fill="#595857"/>
<path d="M47.6667 17.2472C47.6667 17.4644 47.589 17.6295 47.4335 17.7512C47.278 17.8728 47.0707 17.9336 46.8203 17.9336C46.639 17.9336 46.4835 17.9076 46.354 17.8642C46.2244 17.8207 46.1035 17.7338 45.9913 17.6209L46.2331 17.3862C46.3108 17.4644 46.4058 17.5252 46.5008 17.5601C46.5958 17.5948 46.708 17.6122 46.8289 17.6122C46.9844 17.6122 47.1053 17.5774 47.1831 17.5166C47.2694 17.4558 47.3126 17.3602 47.3126 17.2472C47.3126 17.143 47.278 17.0561 47.2176 17.004L47.1226 16.9431L46.9672 16.9084L46.6908 16.865C46.5007 16.8389 46.354 16.7781 46.2417 16.6738C46.1294 16.5695 46.069 16.4131 46.069 16.222C46.069 16.0134 46.138 15.8484 46.2763 15.718C46.4144 15.5877 46.6044 15.5269 46.8549 15.5269C47.1485 15.5269 47.3903 15.6138 47.5803 15.7962L47.3557 16.0221C47.2867 15.9526 47.209 15.9092 47.1312 15.8831C47.0449 15.857 46.9498 15.8397 46.8462 15.8397C46.708 15.8397 46.6044 15.8744 46.5353 15.9439C46.4576 16.0134 46.423 16.1003 46.423 16.2046C46.423 16.3001 46.449 16.3697 46.5094 16.4218C46.5699 16.474 46.6562 16.5087 46.7685 16.5261L47.0362 16.5695C47.1399 16.5869 47.2262 16.6043 47.2953 16.6303L47.4766 16.7433C47.6062 16.8562 47.6667 17.0213 47.6667 17.2299V17.2472Z" fill="#595857"/>
<path d="M49.6353 15.883H48.9876V17.9248H48.6334V15.883H47.9857V15.5615H49.6353V15.883Z" fill="#595857"/>
<path d="M51.8031 17.9248H51.3886L50.8963 16.9256H50.4472V17.9248H50.0931V15.5615H51.0085C51.2245 15.5615 51.4058 15.6223 51.5353 15.7526C51.6649 15.883 51.734 16.0481 51.734 16.2479C51.734 16.413 51.6908 16.5434 51.6045 16.6563C51.5181 16.7693 51.4058 16.8387 51.2676 16.8735L51.8117 17.9162L51.8031 17.9248ZM51.3712 16.2566C51.3712 16.1436 51.3367 16.0481 51.259 15.9873C51.1899 15.9177 51.0862 15.883 50.9653 15.883H50.4385V16.6302H50.9653C51.0862 16.6302 51.1813 16.5955 51.2503 16.5346C51.3195 16.4652 51.3627 16.3783 51.3627 16.2653L51.3712 16.2566Z" fill="#595857"/>
<path d="M52.6495 15.5615H52.2954V17.9248H52.6495V15.5615Z" fill="#595857"/>
<path d="M54.9124 17.2131C54.8692 17.4477 54.7742 17.6214 54.6274 17.7518C54.4806 17.8734 54.2906 17.9429 54.0747 17.9429C53.8329 17.9429 53.6256 17.8561 53.4615 17.691C53.3579 17.5867 53.2888 17.4563 53.2629 17.3C53.2456 17.2044 53.237 17.022 53.237 16.7352C53.237 16.4485 53.2456 16.2747 53.2629 16.1791C53.2888 16.0228 53.3579 15.8924 53.4615 15.7881C53.6256 15.623 53.8329 15.5361 54.0747 15.5361C54.2906 15.5361 54.4806 15.597 54.6274 15.7273C54.7742 15.849 54.8692 16.0314 54.9124 16.266H54.5497C54.5238 16.1357 54.472 16.0401 54.3943 15.9706C54.3079 15.8924 54.2042 15.8577 54.0747 15.8577C53.9278 15.8577 53.8156 15.901 53.7292 15.9967C53.6688 16.0575 53.6342 16.1357 53.617 16.24C53.5997 16.3355 53.591 16.5006 53.591 16.7352C53.591 16.9698 53.5997 17.1436 53.617 17.2392C53.6342 17.3347 53.6774 17.4129 53.7292 17.4737C53.8156 17.5693 53.9365 17.6128 54.0747 17.6128C54.2042 17.6128 54.3079 17.578 54.3856 17.4998C54.4633 17.4303 54.5238 17.3261 54.5497 17.2044H54.9124V17.2131Z" fill="#595857"/>
<path d="M56.881 15.883H56.2333V17.9248H55.8792V15.883H55.2314V15.5615H56.881V15.883Z" fill="#595857"/>
<path d="M22.2062 10.6095C22.2062 9.2193 20.3148 7.99418 17.4562 7.28171C18.2766 4.43181 18.173 2.17275 16.9726 1.47765C15.7721 0.782553 13.7771 1.81651 11.739 3.95393C9.70083 1.81651 7.70586 0.782553 6.50542 1.47765C5.30499 2.17275 5.20135 4.43181 6.02179 7.28171C3.16319 7.99418 1.27185 9.21058 1.27185 10.6095C1.27185 12.0083 3.16319 13.2248 6.02179 13.9373C5.20135 16.7871 5.31362 19.0463 6.50542 19.7413C7.70586 20.4364 9.70083 19.4024 11.739 17.265C13.7771 19.4024 15.7721 20.4451 16.9726 19.7413C18.173 19.0463 18.2766 16.7871 17.4562 13.9373C20.3148 13.2248 22.2062 11.9997 22.2062 10.6095Z" fill="white"/>
<path d="M22.2066 10.6091H23.0702C23.0702 10.0618 22.8802 9.5404 22.5779 9.10602C22.1202 8.45433 21.4466 7.9417 20.6175 7.50726C19.7885 7.07283 18.7866 6.71659 17.6639 6.43856L17.4567 7.28136L18.2857 7.52465C18.6485 6.2474 18.8471 5.07443 18.8471 4.04047C18.8471 3.34537 18.7607 2.70241 18.5361 2.12895C18.3203 1.56419 17.9403 1.04287 17.3962 0.730073C16.9989 0.504167 16.5585 0.399902 16.1181 0.399902C15.2803 0.399902 14.4598 0.730073 13.6308 1.24271C12.8017 1.75534 11.9554 2.4765 11.109 3.36275L11.7308 3.96227L12.3526 3.36275C11.5063 2.4765 10.6599 1.75534 9.8308 1.24271C9.00173 0.730073 8.18129 0.408591 7.34358 0.399902C6.90313 0.399902 6.45404 0.504167 6.06541 0.730073C5.52133 1.04287 5.14133 1.56419 4.92542 2.12895C4.70088 2.70241 4.61452 3.34537 4.61452 4.04047C4.61452 5.07443 4.81316 6.25609 5.17588 7.52465L6.00495 7.28136L5.79768 6.43856C4.29498 6.81217 3.03408 7.31611 2.07546 7.96777C1.60047 8.29794 1.19456 8.66284 0.892291 9.10602C0.590022 9.5404 0.400024 10.0618 0.400024 10.6091C0.400024 11.1565 0.590022 11.6779 0.892291 12.1122C1.35001 12.7639 2.02364 13.2765 2.85272 13.711C3.6818 14.1455 4.67498 14.5016 5.80632 14.7797L6.01359 13.9369L5.18452 13.6936C4.82179 14.9622 4.62315 16.1438 4.62315 17.1778C4.62315 17.8816 4.70952 18.5159 4.93406 19.0893C5.14997 19.6541 5.52996 20.1754 6.07405 20.4882C6.47131 20.7228 6.9204 20.8184 7.36085 20.8184C8.19856 20.8184 9.01899 20.4882 9.84806 19.9755C10.6772 19.4629 11.5235 18.7418 12.3699 17.8555L11.7481 17.256L11.1262 17.8555C11.9726 18.7418 12.819 19.4629 13.648 19.9755C14.4771 20.4882 15.2976 20.8096 16.1353 20.8184C16.5757 20.8184 17.0248 20.7141 17.4221 20.4882C17.9661 20.1754 18.3462 19.6628 18.5621 19.0893C18.7779 18.5159 18.873 17.8729 18.873 17.1778C18.873 16.1438 18.6744 14.9622 18.3116 13.6936L17.4825 13.9369L17.6898 14.7797C19.1925 14.4061 20.462 13.9022 21.4207 13.2505C21.8957 12.9203 22.3016 12.5554 22.6039 12.1122C22.9061 11.6779 23.0961 11.1565 23.0961 10.6091H21.3689C21.3689 10.7569 21.3257 10.9132 21.1789 11.1218C20.9716 11.4346 20.5139 11.8169 19.8402 12.1644C19.1666 12.512 18.2943 12.8334 17.2752 13.0854C17.0508 13.1375 16.8521 13.294 16.7312 13.4938C16.6103 13.6936 16.5844 13.9456 16.6535 14.1715C16.9903 15.3271 17.1543 16.361 17.1457 17.1778C17.1457 17.7251 17.068 18.1596 16.9557 18.4551C16.8348 18.7504 16.7053 18.8982 16.5671 18.9763C16.4635 19.0372 16.3339 19.072 16.1526 19.0806C15.8071 19.0806 15.2371 18.9069 14.5722 18.4985C13.9071 18.0901 13.1557 17.4645 12.3871 16.6565C12.223 16.4827 11.9986 16.3871 11.7653 16.3871C11.5321 16.3871 11.3077 16.4827 11.1436 16.6565C10.3749 17.4645 9.62359 18.0901 8.95853 18.4985C8.29357 18.9155 7.72357 19.0893 7.37813 19.0806C7.18812 19.0806 7.06722 19.0459 6.96358 18.9851C6.81676 18.8982 6.68722 18.7592 6.56632 18.4551C6.45404 18.1596 6.37631 17.7165 6.37631 17.1691C6.37631 16.361 6.5404 15.3184 6.86859 14.1715C6.93768 13.9456 6.90313 13.7024 6.79086 13.4938C6.66995 13.294 6.47995 13.1375 6.24677 13.0854C4.89088 12.7465 3.78544 12.2861 3.07727 11.8082C2.72318 11.5649 2.48136 11.3216 2.34319 11.1218C2.20501 10.9132 2.16182 10.7569 2.15318 10.6091C2.15318 10.4614 2.19637 10.305 2.34319 10.0965C2.55045 9.78367 3.00818 9.40139 3.6818 9.05384C4.35543 8.70629 5.22769 8.38482 6.24677 8.13285C6.47131 8.08072 6.66995 7.92432 6.79086 7.72448C6.91176 7.52465 6.93768 7.27267 6.87722 7.04677C6.5404 5.89117 6.37631 4.85721 6.38495 4.04916C6.38495 3.50177 6.46268 3.05865 6.57495 2.76323C6.69586 2.45912 6.8254 2.32011 6.96358 2.24191C7.07586 2.18109 7.19676 2.14634 7.37813 2.14634C7.72357 2.14634 8.29357 2.32011 8.95853 2.72848C9.62359 3.13685 10.3749 3.76243 11.1436 4.57048C11.3077 4.74425 11.5321 4.83983 11.7653 4.83983C11.9986 4.83983 12.223 4.74425 12.3871 4.57048C13.1557 3.76243 13.9071 3.13685 14.5722 2.72848C15.2371 2.31142 15.8071 2.13764 16.1526 2.14634C16.3425 2.14634 16.4635 2.18109 16.5671 2.24191C16.7053 2.32879 16.8435 2.46781 16.9557 2.76323C17.068 3.05865 17.1457 3.50177 17.1457 4.04047C17.1457 4.84852 16.9816 5.89117 16.6535 7.04677C16.5844 7.27267 16.6189 7.51595 16.7312 7.72448C16.8521 7.92432 17.0421 8.08072 17.2752 8.13285C18.6398 8.47171 19.7453 8.9322 20.4448 9.41011C20.7989 9.65339 21.0407 9.89667 21.1875 10.0965C21.3343 10.305 21.3689 10.4614 21.3775 10.6091H22.2411H22.2066Z" fill="white"/>
<path d="M22.2061 10.6088C22.2061 9.21855 20.3148 7.99348 17.4562 7.28101C17.1539 8.32365 16.7308 9.45319 16.1867 10.6088C16.7308 11.7644 17.1539 12.8852 17.4562 13.9365C20.3148 13.2241 22.2061 11.999 22.2061 10.6088Z" fill="#056FB8"/>
<path d="M6.01392 7.28101C3.15532 7.99348 1.26398 9.20991 1.26398 10.6088C1.26398 12.0077 3.15532 13.2241 6.01392 13.9365C6.31619 12.8939 6.73937 11.7644 7.28345 10.6088C6.73937 9.45319 6.31619 8.32365 6.01392 7.28101Z" fill="#056FB8"/>
<path d="M6.01363 13.9368C5.19319 16.7866 5.30546 19.0457 6.49726 19.7408C7.69771 20.4359 9.69269 19.4019 11.7308 17.2645C10.9794 16.4825 10.2281 15.5442 9.50267 14.4928C8.23316 14.3886 7.05862 14.1974 6.005 13.9368H6.01363Z" fill="#056FB8"/>
<path d="M17.4563 7.28171C18.2767 4.43181 18.173 2.17275 16.9726 1.47765C15.7722 0.782553 13.7772 1.81651 11.739 3.95393C12.4904 4.73592 13.2417 5.67429 13.9672 6.72563C15.2367 6.82989 16.4112 7.02105 17.4649 7.28171H17.4563Z" fill="#056FB8"/>
<path d="M11.7398 3.95393C9.7017 1.81651 7.70669 0.782553 6.50626 1.47765C5.30581 2.17275 5.20218 4.43181 6.02262 7.28171C7.07625 7.02105 8.25078 6.82989 9.52034 6.72563C10.2458 5.67429 10.9971 4.74461 11.7485 3.95393H11.7398Z" fill="#056FB8"/>
<path d="M11.7398 17.2565C13.778 19.3939 15.7729 20.4365 16.9734 19.7328C18.1738 19.0377 18.2775 16.7786 17.457 13.9287C16.412 14.1894 15.2288 14.3805 13.9593 14.4848C13.2339 15.5361 12.4826 16.4745 11.7312 17.2565H11.7398Z" fill="#056FB8"/>
<path d="M13.8987 6.83005C13.1992 6.77792 12.4824 6.74316 11.7396 6.74316C10.997 6.74316 10.2715 6.77792 9.57196 6.83005C9.17472 7.41219 8.78608 8.02909 8.41471 8.67208C8.04335 9.32372 7.70653 9.96665 7.4129 10.6009C7.71517 11.2352 8.05199 11.8869 8.41471 12.5299C8.78608 13.1815 9.17472 13.7897 9.57196 14.3719C10.2715 14.4327 10.9883 14.4587 11.7396 14.4587C12.491 14.4587 13.2078 14.424 13.8987 14.3719C14.296 13.7897 14.6846 13.1815 15.056 12.5299C15.4274 11.8869 15.7642 11.2352 16.0578 10.6009C15.7555 9.95801 15.4274 9.315 15.056 8.67208C14.6846 8.0204 14.296 7.41219 13.8987 6.83005Z" fill="#E52E20"/>
<path d="M10.7033 7.92474C10.7033 7.92474 9.75331 9.28882 10.3492 10.4706C11.2214 12.2082 9.2265 13.3465 9.20924 13.3551H9.15738H9.11418L9.09692 13.2857C9.09692 13.2857 10.2197 11.852 9.55469 10.7398C8.6565 9.23673 10.5651 7.8726 10.591 7.85522H10.686L10.712 7.91604L10.7033 7.92474Z" fill="white"/>
<path d="M12.5426 7.92474C12.5426 7.92474 11.5926 9.28882 12.1885 10.4706C13.0521 12.2082 11.0658 13.3465 11.0398 13.3551H10.9881H10.9449L10.9276 13.2857C10.9276 13.2857 12.0503 11.852 11.3853 10.7398C10.4872 9.23673 12.3957 7.8726 12.4217 7.85522H12.5167L12.5426 7.91604V7.92474Z" fill="white"/>
<path d="M14.3818 7.92474C14.3818 7.92474 13.4318 9.28882 14.0277 10.4706C14.8913 12.2082 12.8964 13.3465 12.8791 13.3551H12.8273H12.7841L12.7668 13.2857C12.7668 13.2857 13.8896 11.852 13.2245 10.7398C12.3264 9.23673 14.235 7.8726 14.2523 7.85522H14.3559L14.3818 7.91604V7.92474Z" fill="white"/>
</g>
<defs>
<clipPath id="clip0_2005_151">
<rect width="57" height="21" fill="white" transform="translate(0.400024 0.399902)"/>
</clipPath>
</defs>
</svg>
