<svg width="80" height="80" viewBox="0 0 80 80" fill="none" xmlns="http://www.w3.org/2000/svg">
<circle cx="40" cy="40" r="40" fill="#4478FF"/>
<path d="M38.92 32.248V43.228H35.32V32.248C35.32 31.078 36.166 30.466 37.12 30.466C38.074 30.466 38.92 31.078 38.92 32.248ZM28.984 37.936C27.904 39.7 26.014 40.69 24.358 40.69C23.476 40.69 22.702 40.168 22.702 39.232C22.702 38.512 23.08 37.99 23.8 37.864C25.456 37.558 26.446 36.28 26.446 34.678V33.958H24.142C23.296 33.958 22.828 33.166 22.828 32.518C22.828 31.87 23.224 31.042 24.142 31.042H32.476C33.394 31.042 33.79 31.87 33.79 32.518C33.79 33.166 33.322 33.958 32.476 33.958H29.884V34.678C29.884 34.894 29.866 35.11 29.848 35.326C32.638 35.524 33.988 37.162 33.916 40.528H30.55C30.676 39.088 30.01 37.954 28.984 37.936ZM28.066 44.596H37.912C38.992 44.596 39.406 45.244 39.406 45.964C39.406 46.702 38.974 47.368 37.912 47.368H26.536C24.52 47.368 23.98 46.666 23.98 44.74V42.94C23.98 41.77 24.826 41.212 25.834 41.212C26.842 41.212 27.634 41.788 27.634 42.94V44.2C27.634 44.542 27.724 44.596 28.066 44.596ZM41.008 36.676V35.308C41.008 34.984 41.08 34.678 41.188 34.426C40.594 34.282 40.252 33.814 40.252 33.184C40.252 32.428 40.702 31.942 41.584 31.942H43.294C43.348 31.024 43.924 30.412 45.004 30.412C46.084 30.412 46.642 31.024 46.696 31.942H48.406C49.288 31.942 49.756 32.428 49.756 33.184C49.756 33.814 49.414 34.282 48.802 34.426C48.91 34.678 48.982 34.984 48.982 35.308V36.676C48.982 38.8 47.668 40.186 45.004 40.186C42.34 40.186 41.008 38.8 41.008 36.676ZM54.04 36.748H53.23V40.258H50.08V32.014C50.08 31.078 50.71 30.466 51.664 30.466C52.618 30.466 53.23 31.078 53.23 32.014V33.94H54.04V32.014C54.04 31.078 54.67 30.466 55.624 30.466C56.578 30.466 57.19 31.078 57.19 32.014V40.258H54.04V36.748ZM45.904 36.802V35.272C45.904 34.642 45.562 34.264 45.004 34.264C44.428 34.264 44.086 34.642 44.086 35.272V36.802C44.086 37.432 44.428 37.756 45.004 37.756C45.562 37.756 45.904 37.432 45.904 36.802ZM45.4 40.816H53.482C56.056 40.816 57.298 42.166 57.298 44.11C57.298 46.072 56.056 47.422 53.482 47.422H45.4C42.79 47.422 41.584 46.036 41.584 44.11C41.584 42.202 42.79 40.816 45.4 40.816ZM46.264 45.01H52.618C53.32 45.01 53.644 44.614 53.644 44.11C53.644 43.624 53.32 43.228 52.618 43.228H46.264C45.562 43.228 45.238 43.624 45.238 44.11C45.238 44.614 45.562 45.01 46.264 45.01Z" fill="white"/>
</svg>
