<svg width="12" height="14" viewBox="0 0 12 14" fill="none" xmlns="http://www.w3.org/2000/svg">
<path d="M0.586957 3.87037L0.220288 3.39317C0.0810524 3.50915 0 3.68472 0 3.87037H0.586957ZM0.586957 10.3889H0C0 10.7264 0.262789 11 0.586957 11V10.3889ZM8.41304 10.3889V11C8.7372 11 9 10.7264 9 10.3889H8.41304ZM8.41304 3.87037H9C9 3.68472 8.91892 3.50915 8.7797 3.39317L8.41304 3.87037ZM4.5 0.611111L4.86667 0.133913C4.6523 -0.0446378 4.3477 -0.0446378 4.13333 0.133913L4.5 0.611111ZM3.19565 6.85803V6.24692C2.87149 6.24692 2.60869 6.52051 2.60869 6.85803H3.19565ZM3.19565 10.3889H2.60869C2.60869 10.7264 2.87149 11 3.19565 11V10.3889ZM5.80435 10.3889V11C6.12851 11 6.39131 10.7264 6.39131 10.3889H5.80435ZM5.80435 6.85803H6.39131C6.39131 6.52051 6.12851 6.24692 5.80435 6.24692V6.85803ZM0 3.87037V10.3889H1.17391V3.87037H0ZM0.586957 11H8.41304V9.77778H0.586957V11ZM9 10.3889V3.87037H7.82609V10.3889H9ZM8.7797 3.39317L4.86667 0.133913L4.13333 1.08831L8.04639 4.34757L8.7797 3.39317ZM4.13333 0.133913L0.220288 3.39317L0.953624 4.34757L4.86667 1.08831L4.13333 0.133913ZM2.60869 6.85803V10.3889H3.78261V6.85803H2.60869ZM3.19565 11H5.80435V9.77778H3.19565V11ZM6.39131 10.3889V6.85803H5.21739V10.3889H6.39131ZM5.80435 6.24692H3.19565V7.46914H5.80435V6.24692Z" fill="#888888"/>
</svg>
