<svg width="24" height="24" viewBox="0 0 24 24" fill="none" xmlns="http://www.w3.org/2000/svg">
<g clip-path="url(#clip0_2005_145)">
<path d="M8.8 0H1.6C0.716344 0 0 0.716344 0 1.6V8.8C0 9.68366 0.716344 10.4 1.6 10.4H8.8C9.68366 10.4 10.4 9.68366 10.4 8.8V1.6C10.4 0.716344 9.68366 0 8.8 0Z" fill="#4478FF"/>
<path d="M8.8 12.8H1.6C0.716344 12.8 0 13.5164 0 14.4V21.6C0 22.4837 0.716344 23.2 1.6 23.2H8.8C9.68366 23.2 10.4 22.4837 10.4 21.6V14.4C10.4 13.5164 9.68366 12.8 8.8 12.8Z" fill="#4478FF"/>
<path d="M21.6 0H14.4C13.5164 0 12.8 0.716344 12.8 1.6V8.8C12.8 9.68366 13.5164 10.4 14.4 10.4H21.6C22.4837 10.4 23.2 9.68366 23.2 8.8V1.6C23.2 0.716344 22.4837 0 21.6 0Z" fill="#4478FF"/>
<path d="M21.6 12.8H14.4C13.5164 12.8 12.8 13.5164 12.8 14.4V21.6C12.8 22.4837 13.5164 23.2 14.4 23.2H21.6C22.4837 23.2 23.2 22.4837 23.2 21.6V14.4C23.2 13.5164 22.4837 12.8 21.6 12.8Z" fill="#4478FF"/>
</g>
<defs>
<clipPath id="clip0_2005_145">
<rect width="23.2" height="23.2" fill="white"/>
</clipPath>
</defs>
</svg>
